<?xml version="1.0" encoding="UTF-8" standalone="no"?>
<!DOCTYPE svg PUBLIC "-//W3C//DTD SVG 1.1//EN" "http://www.w3.org/Graphics/SVG/1.1/DTD/svg11.dtd">
<svg width="100%" height="100%" viewBox="0 0 1536 1536" version="1.1" xmlns="http://www.w3.org/2000/svg" xmlns:xlink="http://www.w3.org/1999/xlink" xml:space="preserve" xmlns:serif="http://www.serif.com/" style="fill-rule:evenodd;clip-rule:evenodd;stroke-miterlimit:22.9256;">
    <g id="Ebene-1" serif:id="Ebene 1" transform="matrix(4.16667,0,0,4.16667,0,0)">
        <g transform="matrix(-1,0,0,1,286.528,-77.2172)">
            <path d="M143.264,88.736C69.623,88.736 9.924,148.786 9.924,222.861C9.924,296.935 69.623,356.985 143.264,356.985C216.905,356.985 276.604,296.935 276.604,222.861C276.604,148.786 216.905,88.736 143.264,88.736" style="fill:rgb(254,254,254);"/>
        </g>
        <g transform="matrix(1,0,0,1,0,-77.3697)">
            <path d="M143.489,88.358C180.652,88.358 214.297,103.422 238.651,127.775C263.004,152.128 278.068,185.774 278.068,222.937C278.068,260.099 263.004,293.745 238.651,318.098C214.297,342.452 180.652,357.516 143.489,357.516C106.326,357.516 72.68,342.452 48.328,318.098C23.974,293.745 8.91,260.099 8.91,222.937C8.91,185.774 23.974,152.128 48.328,127.775C72.68,103.422 106.326,88.358 143.489,88.358ZM237.551,128.876C213.479,104.804 180.222,89.914 143.489,89.914C106.756,89.914 73.498,104.804 49.427,128.876C25.356,152.946 10.466,186.204 10.466,222.937C10.466,259.67 25.356,292.927 49.427,316.998C73.498,341.07 106.756,355.96 143.489,355.96C180.222,355.96 213.479,341.07 237.551,316.998C261.623,292.927 276.512,259.67 276.512,222.937C276.512,186.204 261.623,152.946 237.551,128.876ZM143.489,98.471C212.229,98.471 267.955,154.197 267.955,222.937C267.955,291.677 212.229,347.403 143.489,347.403C74.749,347.403 19.023,291.677 19.023,222.937C19.023,154.197 74.749,98.471 143.489,98.471ZM266.399,222.937C266.399,155.056 211.37,100.026 143.489,100.026C75.608,100.026 20.579,155.056 20.579,222.937C20.579,290.818 75.608,345.848 143.489,345.848C211.37,345.848 266.399,290.818 266.399,222.937Z" style="fill:rgb(227,30,36);fill-rule:nonzero;stroke:rgb(227,30,36);stroke-width:0.22px;"/>
        </g>
        <g transform="matrix(1,0,0,1,0,-200.233)">
            <path d="M143.489,222.112C211.8,222.112 267.178,277.489 267.178,345.8C267.178,346.076 267.169,346.35 267.167,346.625L205.712,346.625C205.716,346.35 205.722,346.076 205.722,345.8C205.722,311.431 177.86,283.567 143.489,283.567C109.119,283.567 81.256,311.431 81.256,345.8C81.256,346.076 81.262,346.35 81.266,346.625L19.811,346.625C19.809,346.35 19.801,346.076 19.801,345.8C19.801,277.489 75.178,222.112 143.489,222.112" style="fill:rgb(227,30,36);"/>
        </g>
        <g transform="matrix(1,0,0,1,0,48.7927)">
            <path d="M143.489,222.112C211.8,222.112 267.178,166.735 267.178,98.424C267.178,98.148 267.169,97.874 267.167,97.599L205.712,97.599C205.716,97.874 205.722,98.148 205.722,98.424C205.722,132.794 177.86,160.657 143.489,160.657C109.119,160.657 81.256,132.794 81.256,98.424C81.256,98.148 81.262,97.874 81.266,97.599L19.811,97.599C19.809,97.874 19.801,98.148 19.801,98.424C19.801,166.735 75.178,222.112 143.489,222.112Z" style="fill:rgb(254,254,254);stroke:rgb(227,30,36);stroke-width:0.22px;"/>
        </g>
        <g transform="matrix(1,0,0,1,0,48.7924)">
            <path d="M143.489,221.335C211.37,221.335 266.399,166.305 266.399,98.424L266.403,98.424L266.402,98.377L206.496,98.377L206.497,98.418L206.5,98.424C206.5,115.823 199.447,131.577 188.044,142.979C176.642,154.382 160.888,161.435 143.489,161.435C126.09,161.435 110.336,154.382 98.934,142.979C87.531,131.577 80.478,115.823 80.478,98.424L80.481,98.418L80.482,98.377L20.576,98.377L20.576,98.424L20.579,98.424C20.579,166.305 75.608,221.335 143.489,221.335ZM267.955,98.424C267.955,167.165 212.229,222.89 143.489,222.89C74.749,222.89 19.023,167.165 19.023,98.424L19.026,98.415L19.031,97.96L19.036,97.59L19.046,96.821L82.055,96.821L82.041,97.612L82.037,97.836L82.031,98.424L82.034,98.424C82.034,115.394 88.913,130.759 100.034,141.879C111.154,153 126.519,159.879 143.489,159.879C160.459,159.879 175.824,153 186.944,141.879C198.065,130.759 204.944,115.394 204.944,98.424L204.947,98.424L204.941,97.836L204.937,97.612L204.924,96.821L267.933,96.821L267.942,97.59L267.947,97.96L267.952,98.415L267.955,98.424Z" style="fill:rgb(227,30,36);fill-rule:nonzero;stroke:rgb(227,30,36);stroke-width:0.22px;"/>
        </g>
        <g transform="matrix(-1,0,0,1,286.978,-77.3706)">
            <path d="M143.489,152.925C104.822,152.925 73.477,184.27 73.477,222.937C73.477,261.604 104.822,292.95 143.489,292.95C182.156,292.95 213.501,261.604 213.501,222.937C213.501,184.27 182.156,152.925 143.489,152.925" style="fill:rgb(254,254,254);"/>
        </g>
        <g transform="matrix(1,0,0,1,0,-77.3694)">
            <path d="M143.489,159.926C160.888,159.926 176.642,166.979 188.045,178.381C199.447,189.783 206.5,205.536 206.5,222.937C206.5,240.335 199.447,256.09 188.045,267.492C176.642,278.894 160.888,285.948 143.489,285.948C126.089,285.948 110.335,278.894 98.933,267.492C87.531,256.09 80.478,240.335 80.478,222.937C80.478,205.536 87.531,189.783 98.933,178.381C110.335,166.979 126.089,159.926 143.489,159.926ZM186.945,179.481C175.824,168.36 160.459,161.481 143.489,161.481C126.518,161.481 111.153,168.36 100.033,179.481C88.913,190.601 82.034,205.966 82.034,222.937C82.034,239.907 88.913,255.271 100.033,266.392C111.153,277.513 126.518,284.392 143.489,284.392C160.459,284.392 175.824,277.513 186.945,266.392C198.065,255.271 204.944,239.907 204.944,222.937C204.944,205.966 198.065,190.601 186.945,179.481" style="fill:rgb(227,30,36);fill-rule:nonzero;"/>
        </g>
        <g transform="matrix(1,0,0,1,0,5.2441)">
            <path d="M80.861,140.748L205.318,140.748C202.412,221.389 83.752,222.512 80.861,140.748" style="fill:rgb(227,30,36);"/>
        </g>
        <g transform="matrix(1,0,0,1,0,-115.376)">
            <path d="M106.056,255.692L106.056,228.187L118.246,228.187C120.698,228.187 122.562,228.437 123.836,228.93C125.11,229.423 126.128,230.294 126.89,231.542C127.652,232.791 128.029,234.174 128.029,235.685C128.029,237.637 127.396,239.283 126.134,240.621C124.873,241.959 122.926,242.804 120.289,243.169C121.255,243.63 121.985,244.091 122.485,244.539C123.548,245.512 124.553,246.735 125.494,248.202L130.251,255.692L125.705,255.692L122.069,249.969C121.012,248.31 120.135,247.049 119.45,246.172C118.759,245.295 118.144,244.687 117.6,244.335C117.062,243.989 116.505,243.746 115.942,243.605C115.532,243.521 114.859,243.477 113.918,243.477L109.705,243.477L109.705,255.692L106.056,255.692ZM109.705,240.326L117.517,240.326C119.181,240.326 120.474,240.154 121.409,239.808C122.344,239.469 123.055,238.918 123.535,238.156C124.021,237.401 124.265,236.581 124.265,235.691C124.265,234.392 123.797,233.316 122.856,232.477C121.915,231.639 120.43,231.222 118.4,231.222L109.705,231.222L109.705,240.326Z" style="fill:rgb(227,30,36);fill-rule:nonzero;"/>
        </g>
        <g transform="matrix(1,0,0,1,0,-115.376)">
            <path d="M132.607,242.305C132.607,237.746 133.836,234.174 136.288,231.593C138.741,229.013 141.903,227.726 145.783,227.726C148.325,227.726 150.611,228.335 152.653,229.545C154.689,230.755 156.245,232.445 157.314,234.615C158.383,236.779 158.921,239.238 158.921,241.985C158.921,244.77 158.358,247.267 157.231,249.463C156.104,251.665 154.51,253.33 152.448,254.457C150.38,255.59 148.152,256.153 145.764,256.153C143.171,256.153 140.86,255.526 138.817,254.277C136.781,253.029 135.232,251.326 134.182,249.162C133.132,247.004 132.607,244.719 132.607,242.305ZM136.372,242.369C136.372,245.679 137.261,248.285 139.041,250.186C140.821,252.088 143.056,253.042 145.745,253.042C148.485,253.042 150.732,252.081 152.506,250.161C154.273,248.24 155.157,245.512 155.157,241.978C155.157,239.744 154.779,237.791 154.023,236.127C153.268,234.462 152.16,233.169 150.707,232.253C149.247,231.337 147.614,230.877 145.803,230.877C143.229,230.877 141.013,231.76 139.157,233.527C137.3,235.294 136.372,238.239 136.372,242.369" style="fill:rgb(227,30,36);fill-rule:nonzero;"/>
        </g>
        <g transform="matrix(1,0,0,1,0,-115.376)">
            <path d="M170.593,255.692L170.593,231.414L161.527,231.414L161.527,228.187L183.308,228.187L183.308,231.414L174.242,231.414L174.242,255.692L170.593,255.692Z" style="fill:rgb(227,30,36);fill-rule:nonzero;"/>
        </g>
        <g transform="matrix(1,0,0,1,0,-30.3194)">
            <path d="M98.33,213.164L92.305,185.659L95.448,185.659L98.878,203.695C99.251,205.584 99.581,207.46 99.864,209.317C100.466,206.384 100.817,204.694 100.919,204.246L105.244,185.659L108.894,185.659L112.175,199.585C112.979,203.042 113.576,206.288 113.959,209.317C114.263,207.581 114.652,205.59 115.126,203.343L118.701,185.659L121.742,185.659L115.478,213.164L112.532,213.164L107.732,192.209C107.327,190.455 107.082,189.379 106.991,188.982C106.73,190.237 106.496,191.313 106.294,192.203L101.494,213.164L98.33,213.164Z" style="fill:rgb(254,254,254);fill-rule:nonzero;"/>
        </g>
        <g transform="matrix(1,0,0,1,0,-30.3194)">
            <path d="M124.614,213.164L124.614,185.659L141.138,185.659L141.138,188.886L127.65,188.886L127.65,197.337L140.275,197.337L140.275,200.564L127.65,200.564L127.65,209.937L141.682,209.937L141.682,213.164L124.614,213.164Z" style="fill:rgb(254,254,254);fill-rule:nonzero;"/>
        </g>
        <g transform="matrix(0,-1,-1,0,347.31,316.991)">
            <rect x="134.146" y="197.893" width="27.505" height="3.037" style="fill:rgb(254,254,254);"/>
        </g>
        <g transform="matrix(1,0,0,1,0,-30.3194)">
            <path d="M153.758,204.329L156.603,204.021C156.736,205.404 157.05,206.538 157.546,207.428C158.041,208.311 158.809,209.028 159.847,209.579C160.886,210.123 162.058,210.398 163.358,210.398C164.514,210.398 165.531,210.194 166.415,209.777C167.3,209.361 167.955,208.791 168.387,208.068C168.818,207.344 169.036,206.557 169.036,205.712C169.036,204.854 168.829,204.105 168.413,203.458C167.998,202.818 167.31,202.28 166.352,201.838C165.739,201.557 164.381,201.109 162.276,200.5C160.172,199.892 158.702,199.322 157.86,198.784C156.768,198.093 155.958,197.235 155.426,196.217C154.888,195.199 154.621,194.053 154.621,192.792C154.621,191.396 154.951,190.096 155.607,188.893C156.262,187.682 157.216,186.767 158.478,186.139C159.735,185.512 161.136,185.198 162.676,185.198C164.37,185.198 165.867,185.525 167.161,186.184C168.456,186.837 169.452,187.804 170.15,189.085C170.848,190.359 171.22,191.805 171.274,193.419L168.365,193.688C168.211,191.953 167.683,190.64 166.783,189.757C165.883,188.867 164.551,188.425 162.793,188.425C160.961,188.425 159.623,188.829 158.787,189.635C157.951,190.442 157.53,191.415 157.53,192.555C157.53,193.541 157.828,194.354 158.42,194.994C159.005,195.628 160.524,196.287 162.985,196.953C165.446,197.626 167.135,198.208 168.051,198.708C169.377,199.444 170.363,200.372 170.997,201.505C171.631,202.632 171.945,203.932 171.945,205.404C171.945,206.87 171.599,208.241 170.901,209.534C170.203,210.827 169.207,211.833 167.902,212.55C166.596,213.267 165.132,213.625 163.496,213.625C161.429,213.625 159.698,213.26 158.302,212.537C156.901,211.813 155.809,210.725 155.015,209.265C154.216,207.812 153.801,206.166 153.758,204.329" style="fill:rgb(254,254,254);fill-rule:nonzero;"/>
        </g>
        <g transform="matrix(1,0,0,1,0,-30.3194)">
            <path d="M175.077,204.329L177.922,204.021C178.055,205.404 178.369,206.538 178.865,207.428C179.36,208.311 180.128,209.028 181.166,209.579C182.205,210.123 183.377,210.398 184.677,210.398C185.833,210.398 186.85,210.194 187.734,209.777C188.619,209.361 189.274,208.791 189.705,208.068C190.137,207.344 190.356,206.557 190.356,205.712C190.356,204.854 190.148,204.105 189.732,203.458C189.317,202.818 188.629,202.28 187.671,201.838C187.058,201.557 185.7,201.109 183.595,200.5C181.491,199.892 180.021,199.322 179.179,198.784C178.087,198.093 177.277,197.235 176.745,196.217C176.207,195.199 175.94,194.053 175.94,192.792C175.94,191.396 176.27,190.096 176.926,188.893C177.581,187.682 178.535,186.767 179.797,186.139C181.055,185.512 182.455,185.198 183.995,185.198C185.689,185.198 187.186,185.525 188.48,186.184C189.775,186.837 190.771,187.804 191.469,189.085C192.167,190.359 192.54,191.805 192.593,193.419L189.684,193.688C189.53,191.953 189.002,190.64 188.102,189.757C187.202,188.867 185.87,188.425 184.112,188.425C182.28,188.425 180.943,188.829 180.106,189.635C179.27,190.442 178.849,191.415 178.849,192.555C178.849,193.541 179.147,194.354 179.739,194.994C180.325,195.628 181.843,196.287 184.304,196.953C186.765,197.626 188.454,198.208 189.37,198.708C190.696,199.444 191.682,200.372 192.316,201.505C192.95,202.632 193.264,203.932 193.264,205.404C193.264,206.87 192.918,208.241 192.22,209.534C191.522,210.827 190.526,211.833 189.221,212.55C187.915,213.267 186.451,213.625 184.815,213.625C182.748,213.625 181.017,213.26 179.621,212.537C178.22,211.813 177.128,210.725 176.335,209.265C175.535,207.812 175.12,206.166 175.077,204.329" style="fill:rgb(254,254,254);fill-rule:nonzero;"/>
        </g>
        <g transform="matrix(1,0,0,1,0,-14.0245)">
            <path d="M245.802,205.663L221.121,193.514L229.317,176.865L232.212,178.291L225.629,191.664L233.316,195.449L239.017,183.867L241.912,185.292L236.211,196.874L247.413,202.389L245.802,205.663Z" style="fill:rgb(227,30,36);fill-rule:nonzero;"/>
        </g>
        <g transform="matrix(1,0,0,1,0,112.635)">
            <path d="M112.303,138.75L119.969,112.332L123.474,113.349L116.708,136.669L129.696,140.438L128.797,143.537L112.303,138.75Z" style="fill:rgb(227,30,36);fill-rule:nonzero;"/>
        </g>
        <g transform="matrix(1,0,0,1,0,90.8509)">
            <path d="M85.155,146.775L98.352,122.639L101.555,124.39L89.907,145.694L101.773,152.182L100.224,155.014L85.155,146.775Z" style="fill:rgb(227,30,36);fill-rule:nonzero;"/>
        </g>
        <g transform="matrix(1,0,0,1,0,-8.6358)">
            <path d="M38.677,188.688L59.144,170.812L60.748,174.044L47.062,185.232C45.636,186.417 44.199,187.554 42.753,188.632C45.57,188.007 47.196,187.65 47.632,187.565L65.748,184.122L67.61,187.876L57.366,197.165C54.817,199.46 52.342,201.452 49.947,203.133C51.587,202.708 53.49,202.262 55.655,201.797L72.615,197.964L74.167,201.094L47.428,206.328L45.925,203.298L61.411,189.463C62.707,188.301 63.501,187.592 63.795,187.33C62.588,187.595 61.548,187.81 60.683,187.98L40.292,191.944L38.677,188.688Z" style="fill:rgb(227,30,36);fill-rule:nonzero;"/>
        </g>
        <g transform="matrix(1,0,0,1,0,46.7521)">
            <path d="M221.155,176.796L200.47,158.662L208.507,149.495C210.124,147.65 211.54,146.413 212.751,145.781C213.962,145.147 215.287,144.956 216.728,145.206C218.171,145.457 219.459,146.084 220.595,147.08C222.064,148.367 222.883,149.929 223.058,151.76C223.233,153.591 222.585,155.612 221.121,157.836C222.105,157.413 222.932,157.169 223.599,157.088C225.032,156.93 226.613,156.981 228.337,157.24L237.107,158.601L234.11,162.019L227.407,160.98C225.463,160.681 223.937,160.51 222.826,160.446C221.71,160.388 220.847,160.45 220.224,160.627C219.609,160.804 219.059,161.062 218.582,161.392C218.249,161.645 217.772,162.122 217.152,162.83L214.374,165.998L223.561,174.052L221.155,176.796Z" style="fill:rgb(227,30,36);fill-rule:nonzero;"/>
        </g>
        <g transform="matrix(1,0,0,1,0,37.6217)">
            <path d="M212.006,173.051L217.155,167.177C218.253,165.925 218.976,164.839 219.331,163.908C219.692,162.981 219.747,162.084 219.49,161.22C219.243,160.356 218.787,159.632 218.118,159.045C217.141,158.189 216.024,157.831 214.773,157.986C213.521,158.141 212.229,158.984 210.891,160.51L205.159,167.049L212.006,173.051Z" style="fill:rgb(254,254,254);fill-rule:nonzero;"/>
        </g>
        <g transform="matrix(1,0,0,1,0,93.6487)">
            <path d="M177.013,144.834C174.562,140.991 173.676,137.317 174.357,133.822C175.037,130.329 177.013,127.542 180.285,125.457C182.428,124.089 184.683,123.374 187.055,123.295C189.422,123.221 191.644,123.809 193.712,125.065C195.777,126.315 197.553,128.098 199.03,130.415C200.527,132.763 201.396,135.172 201.626,137.63C201.86,140.093 201.411,142.354 200.278,144.412C199.143,146.48 197.568,148.153 195.554,149.438C193.368,150.832 191.082,151.546 188.687,151.591C186.299,151.634 184.077,151.031 182.029,149.77C179.982,148.515 178.311,146.869 177.013,144.834" style="fill:rgb(227,30,36);fill-rule:nonzero;"/>
        </g>
        <g transform="matrix(1,0,0,1,0,94.0773)">
            <path d="M180.222,142.436C182.002,145.227 184.153,146.945 186.676,147.593C189.2,148.239 191.597,147.841 193.865,146.395C196.175,144.922 197.555,142.904 198.017,140.33C198.474,137.76 197.752,134.985 195.851,132.005C194.651,130.121 193.282,128.677 191.75,127.68C190.218,126.683 188.588,126.188 186.87,126.197C185.147,126.21 183.522,126.699 181.994,127.673C179.824,129.057 178.431,130.994 177.816,133.482C177.2,135.971 178.001,138.953 180.222,142.436" style="fill:rgb(254,254,254);fill-rule:nonzero;"/>
        </g>
        <g transform="matrix(1,0,0,1,0,116.707)">
            <path d="M144.03,139.91L142.741,112.431L152.208,111.988C154.345,111.887 155.982,111.939 157.119,112.148C158.71,112.439 160.084,113.035 161.241,113.93C162.751,115.089 163.905,116.599 164.711,118.471C165.523,120.344 165.984,122.508 166.099,124.958C166.197,127.043 166.04,128.903 165.629,130.538C165.22,132.172 164.655,133.539 163.943,134.63C163.225,135.721 162.433,136.592 161.553,137.236C160.679,137.886 159.607,138.397 158.343,138.771C157.071,139.144 155.608,139.367 153.944,139.445L144.03,139.91Z" style="fill:rgb(227,30,36);fill-rule:nonzero;"/>
        </g>
        <g transform="matrix(1,0,0,1,0,116.537)">
            <path d="M147.525,136.684L153.384,136.41C155.194,136.325 156.606,136.093 157.621,135.705C158.634,135.318 159.431,134.806 160.016,134.164C160.833,133.259 161.449,132.064 161.861,130.583C162.272,129.103 162.433,127.326 162.335,125.247C162.2,122.369 161.622,120.179 160.61,118.674C159.597,117.171 158.403,116.188 157.029,115.726C156.039,115.394 154.463,115.283 152.302,115.384L146.539,115.654L147.525,136.684Z" style="fill:rgb(254,254,254);fill-rule:nonzero;"/>
        </g>
        <g transform="matrix(1,0,0,1,0,62.8075)">
            <path d="M54.856,148.35L82.459,138.045L85.109,141.046L71.907,167.651L69.164,164.546L73.305,156.642L65.637,147.96L57.413,151.243L54.856,148.35Z" style="fill:rgb(227,30,36);fill-rule:nonzero;"/>
        </g>
        <g transform="matrix(1,0,0,1,0,51.2537)">
            <path d="M69.072,157.839L75.279,164.865L79.096,157.665C80.26,155.484 81.263,153.726 82.095,152.385C80.5,153.29 78.846,154.076 77.121,154.753L69.072,157.839Z" style="fill:rgb(254,254,254);fill-rule:nonzero;"/>
        </g>
        <g transform="matrix(1,0,0,1,0,-144.798)">
            <path d="M55.9,256.91L52.615,255.768L56.716,243.881L67.128,247.489C67.948,249.819 68.388,252.083 68.447,254.274C68.505,256.464 68.184,258.582 67.474,260.627C66.521,263.379 65.061,265.678 63.098,267.519C61.136,269.36 58.843,270.47 56.212,270.843C53.581,271.217 50.89,270.921 48.138,269.968C45.407,269.022 43.059,267.561 41.087,265.6C39.115,263.638 37.929,261.388 37.529,258.847C37.121,256.306 37.404,253.636 38.377,250.843C39.08,248.819 40.041,247.097 41.267,245.683C42.493,244.277 43.854,243.306 45.35,242.782C46.846,242.259 48.628,242.085 50.682,242.256L50.435,245.921C48.865,245.844 47.56,245.979 46.526,246.319C45.492,246.666 44.529,247.33 43.631,248.319C42.741,249.308 42.045,250.509 41.559,251.93C40.971,253.621 40.714,255.179 40.801,256.595C40.888,258.011 41.223,259.246 41.805,260.299C42.38,261.352 43.1,262.259 43.963,263.033C45.446,264.348 47.203,265.358 49.234,266.06C51.736,266.925 53.971,267.225 55.953,266.947C57.941,266.668 59.622,265.853 61.007,264.487C62.399,263.128 63.41,261.523 64.052,259.673C64.613,258.065 64.848,256.39 64.758,254.641C64.675,252.9 64.415,251.513 63.992,250.472L58.766,248.662L55.9,256.91Z" style="fill:rgb(254,254,254);fill-rule:nonzero;"/>
        </g>
        <g transform="matrix(1,0,0,1,0,-196.433)">
            <path d="M73.195,298.272L59.039,269.783L61.901,266.665L92.002,277.802L88.973,281.099L80.003,277.567L71.597,286.714L76.016,295.202L73.195,298.272ZM70.007,283.714L76.822,276.294L68.667,273.014C66.183,272.021 64.196,271.148 62.707,270.401C63.854,271.969 64.883,273.64 65.801,275.42L70.007,283.714Z" style="fill:rgb(254,254,254);fill-rule:nonzero;"/>
        </g>
        <g transform="matrix(1,0,0,1,0,-244.617)">
            <path d="M89.705,316.817L92.812,314.771C93.67,315.992 94.606,316.868 95.626,317.405C96.64,317.935 97.883,318.135 99.349,318.01C100.815,317.886 102.29,317.416 103.78,316.615C105.097,315.902 106.151,315.077 106.95,314.141C107.743,313.198 108.204,312.26 108.326,311.307C108.455,310.361 108.293,309.482 107.861,308.671C107.416,307.853 106.79,307.27 105.983,306.913C105.176,306.557 104.119,306.469 102.798,306.649C101.954,306.749 100.175,307.169 97.462,307.888C94.756,308.608 92.777,308.979 91.54,308.987C89.943,309.007 88.576,308.703 87.438,308.061C86.308,307.427 85.414,306.51 84.763,305.311C84.05,303.994 83.76,302.562 83.885,301.007C84.017,299.46 84.639,297.997 85.751,296.627C86.864,295.257 88.301,294.096 90.061,293.143C91.995,292.095 93.871,291.482 95.683,291.311C97.501,291.133 99.131,291.431 100.586,292.212C102.034,292.993 103.204,294.132 104.095,295.63L100.912,297.675C99.841,296.121 98.567,295.203 97.082,294.912C95.597,294.628 93.854,295.028 91.851,296.11C89.758,297.241 88.446,298.451 87.907,299.734C87.362,301.017 87.384,302.2 87.966,303.281C88.473,304.216 89.231,304.801 90.239,305.04C91.226,305.287 93.301,304.972 96.451,304.081C99.6,303.198 101.828,302.711 103.128,302.621C105.03,302.499 106.632,302.783 107.935,303.46C109.245,304.143 110.277,305.185 111.031,306.585C111.784,307.978 112.095,309.5 111.963,311.158C111.837,312.817 111.207,314.39 110.087,315.878C108.967,317.372 107.475,318.616 105.611,319.63C103.247,320.905 101.087,321.634 99.117,321.811C97.146,321.988 95.336,321.627 93.675,320.734C92.02,319.842 90.699,318.536 89.705,316.817" style="fill:rgb(254,254,254);fill-rule:nonzero;"/>
        </g>
        <g transform="matrix(1,0,0,1,0,-266.204)">
            <path d="M127.965,333.095L123.757,307.28L114.118,308.847L113.551,305.395L136.751,301.613L137.318,305.065L127.631,306.646L131.84,332.462L127.965,333.095Z" style="fill:rgb(254,254,254);fill-rule:nonzero;"/>
        </g>
        <g transform="matrix(1,0,0,1,0,-264.802)">
            <path d="M145.557,329.399L150.381,300.123L154.256,300.764L152.274,312.783L167.489,315.292L169.471,303.273L173.346,303.914L168.522,333.182L164.647,332.541L166.922,318.744L151.707,316.242L149.432,330.039L145.557,329.399Z" style="fill:rgb(254,254,254);fill-rule:nonzero;"/>
        </g>
        <g transform="matrix(1,0,0,1,0,-237.031)">
            <path d="M172.179,306.451L196.37,285.819L200.085,287.84L196.582,319.716L192.652,317.578L193.906,308.026L183.004,302.1L175.846,308.438L172.179,306.451ZM185.523,299.834L194.367,304.637L195.569,295.935C195.929,293.293 196.292,291.155 196.658,289.522C195.414,291.014 194.045,292.417 192.544,293.738L185.523,299.834Z" style="fill:rgb(254,254,254);fill-rule:nonzero;"/>
        </g>
        <g transform="matrix(1,0,0,1,0,-202.991)">
            <path d="M234.36,284.236L236.829,287.293L223.498,298.092C221.18,299.973 219.123,301.199 217.335,301.779C215.546,302.357 213.666,302.314 211.702,301.633C209.738,300.959 207.849,299.505 206.051,297.285C204.3,295.12 203.239,293.05 202.869,291.07C202.506,289.09 202.785,287.233 203.719,285.506C204.661,283.772 206.349,281.92 208.793,279.937L222.131,269.137L224.6,272.193L211.283,282.979C209.278,284.6 207.952,285.985 207.307,287.127C206.654,288.269 206.443,289.504 206.666,290.826C206.883,292.149 207.528,293.468 208.589,294.783C210.408,297.025 212.215,298.216 214.004,298.349C215.794,298.475 218.14,297.368 221.036,295.022L234.36,284.236Z" style="fill:rgb(254,254,254);fill-rule:nonzero;"/>
        </g>
        <g transform="matrix(1,0,0,1,0,-139.584)">
            <path d="M225.782,244.182L227.297,247.574C225.951,248.227 224.935,249.007 224.243,249.92C223.552,250.841 223.148,252.034 223.033,253.498C222.917,254.963 223.14,256.492 223.688,258.087C224.174,259.508 224.821,260.681 225.616,261.62C226.41,262.56 227.262,263.168 228.18,263.445C229.097,263.722 229.988,263.708 230.855,263.411C231.735,263.107 232.417,262.587 232.893,261.844C233.375,261.108 233.639,260.081 233.678,258.754C233.712,257.897 233.595,256.078 233.32,253.283C233.052,250.495 233.013,248.491 233.202,247.268C233.443,245.687 233.972,244.385 234.782,243.375C235.599,242.359 236.648,241.628 237.938,241.182C239.352,240.695 240.81,240.638 242.321,241.016C243.825,241.394 245.166,242.248 246.338,243.571C247.509,244.894 248.416,246.498 249.071,248.383C249.788,250.462 250.083,252.414 249.965,254.231C249.84,256.048 249.282,257.613 248.276,258.918C247.27,260.217 245.956,261.188 244.333,261.818L242.833,258.35C244.54,257.548 245.655,256.437 246.178,255.024C246.707,253.611 246.597,251.82 245.854,249.664C245.077,247.425 244.1,245.931 242.924,245.189C241.748,244.447 240.581,244.272 239.417,244.677C238.412,245.022 237.708,245.673 237.307,246.624C236.905,247.56 236.882,249.655 237.243,252.907C237.597,256.158 237.717,258.434 237.596,259.732C237.408,261.624 236.871,263.162 235.983,264.337C235.096,265.512 233.901,266.359 232.396,266.88C230.906,267.393 229.35,267.45 227.736,267.057C226.122,266.657 224.67,265.781 223.388,264.437C222.099,263.086 221.11,261.412 220.421,259.409C219.543,256.872 219.181,254.615 219.328,252.646C219.474,250.677 220.124,248.947 221.27,247.457C222.422,245.973 223.924,244.879 225.782,244.182" style="fill:rgb(254,254,254);fill-rule:nonzero;"/>
        </g>
        <g transform="matrix(1,0,0,1,0,35.3888)">
            <path d="M282.103,126.909C284.192,127.612 283.026,125.46 283.364,124.712C283.703,123.959 282.816,121.26 283.176,120.831C283.685,120.223 285.44,121.812 285.993,121.392L320.418,194.814C320.468,194.754 321.122,193.763 322.352,191.843C323.597,189.936 325.003,187.836 326.585,185.555C328.195,183.272 330.277,180.426 332.869,177C335.45,173.588 338.814,169.421 342.935,164.501C343.497,163.402 344.315,161.681 345.038,162.021C346.628,162.767 344.953,167.089 345.473,166.355C348.298,162.363 343.801,170.308 347.013,168.365C348.545,167.439 350.595,168.4 349.877,170.089C349.269,171.516 358.066,162.248 353.271,170.435C352.46,172.127 351.408,174.044 350.091,176.219C348.788,178.406 347.061,181.07 344.898,184.225C342.736,187.408 340.694,190.237 338.802,192.737C336.897,195.252 334.983,197.658 333.071,199.94C328.292,205.645 324.103,209.953 320.506,212.892C318.55,212.187 317.135,212.01 316.29,212.386C315.613,211.719 312.841,206.9 307.943,197.905C303.061,188.923 298.165,179.173 293.241,168.644C288.318,158.114 284.417,148.441 281.534,139.571C281.203,138.461 280.847,137.381 280.493,136.328C280.126,135.29 279.702,134.051 279.188,132.587C278.629,132.021 278.118,130.885 278.385,130.249C278.651,129.617 281.934,131.967 282.319,131.283C282.705,130.596 279.731,126.111 282.103,126.909" style="fill:rgb(227,30,36);fill-rule:nonzero;"/>
        </g>
        <g transform="matrix(1,0,0,1,0,233.639)">
            <path d="M212.851,56.88C212.843,55.234 212.628,51.095 212.217,44.421C211.791,37.735 211.523,32.846 211.358,29.732C211.208,26.63 211.17,23.313 211.247,19.779C211.282,18.198 211.085,8.211 211.524,7.696C212.15,6.963 213.892,7.546 215.256,10.536C215.92,11.994 215.267,9.994 216.539,9.303C218.487,8.216 218.341,11.187 218.813,10.776C219.271,10.378 219.479,5.442 219.859,5.254C220.254,5.058 220.495,5.006 220.614,5.105C220.851,5.304 221.139,6.706 221.509,9.335C221.876,11.938 222.237,15.089 222.589,18.763C222.941,22.437 223.253,26.128 223.543,29.877C223.845,33.61 224.069,38.009 224.227,43.059C224.419,48.338 224.675,52.638 225.006,55.916C225.352,59.207 225.601,61.408 225.784,62.544C227.327,63.231 229.905,64.458 233.529,66.183C237.153,67.907 241.534,70.114 246.68,72.761C251.814,75.422 256.379,78.01 260.388,80.511C260.594,80.986 265.001,83.276 259.591,82.516C258.92,82.422 264.471,86.263 264.021,86.851C262.699,88.585 256.442,83.376 255.342,85.772C254.846,86.853 256.611,87.793 257.039,88.374C257.901,89.544 258.193,89.838 257.652,90.936C256.844,92.577 253.812,90.738 253.514,91.094C251.816,90.201 249.95,89.268 247.94,88.266C245.945,87.275 243.827,86.282 241.579,85.232C239.347,84.194 236.613,82.913 233.347,81.362C230.081,79.812 227.874,78.745 226.682,78.15L229.753,125.029C229.597,125.216 229.771,125.898 229.579,125.986C229.389,126.074 228.635,125.9 228.656,126.125C229.002,129.859 227.092,125.296 227.045,125.283C226.741,125.198 226.264,126.646 226.004,126.589C225.743,126.531 225.7,124.955 225.476,124.927C225.273,124.901 223.233,127.225 222.47,127.446C221.295,127.786 222.9,121.031 221.218,126.024C220.486,128.199 220.845,129.167 219.622,125.924C217.691,122.239 216.292,116.503 215.414,108.731C214.521,100.947 213.888,92.701 213.504,84.007C213.106,75.301 212.855,70.904 212.751,70.818C211.342,70.242 208.392,68.856 203.834,66.651C199.303,64.445 193.219,61.29 185.626,57.2C185.261,56.642 184.642,55.331 185.351,55.33C189.715,55.323 185.776,54.286 186.128,53.409C186.385,52.769 184.638,49.771 187.461,51.096C188.454,51.561 193.909,54.332 188.53,49.066C188.331,48.871 188.988,49.869 186.884,46.733C186.219,45.742 187.721,45.19 188.437,45.09C189.002,45.01 189.45,44.717 189.772,44.332C195.28,47.029 199.791,49.32 203.277,51.18C206.762,53.041 209.948,54.928 212.851,56.88" style="fill:rgb(227,30,36);fill-rule:nonzero;"/>
        </g>
        <g transform="matrix(1,0,0,1,0,140.047)">
            <path d="M264.846,100.703C264.835,98.593 264.56,93.288 264.033,84.733C263.487,76.163 263.144,69.896 262.932,65.904C262.739,61.928 262.691,57.677 262.79,53.146C262.835,51.12 262.582,38.319 263.145,37.658C263.947,36.719 266.18,37.467 267.928,41.299C268.78,43.168 267.943,40.604 269.573,39.719C272.07,38.325 271.883,42.134 272.488,41.607C273.074,41.096 273.341,34.77 273.828,34.529C274.335,34.278 274.644,34.211 274.796,34.338C275.1,34.593 275.47,36.389 275.943,39.76C276.414,43.095 276.876,47.135 277.328,51.845C277.779,56.554 278.179,61.286 278.551,66.09C278.938,70.875 279.225,76.514 279.427,82.986C279.674,89.754 280.002,95.266 280.426,99.467C280.869,103.685 281.189,106.506 281.423,107.963C283.4,108.844 286.705,110.416 291.351,112.627C295.996,114.837 301.611,117.666 308.208,121.058C314.788,124.47 320.64,127.787 325.778,130.992C326.043,131.602 331.691,134.537 324.756,133.562C323.897,133.442 331.012,138.365 330.436,139.12C328.741,141.342 320.72,134.665 319.31,137.737C318.675,139.122 320.938,140.326 321.486,141.071C322.59,142.571 322.965,142.948 322.271,144.356C321.236,146.459 317.35,144.102 316.968,144.558C314.791,143.413 312.399,142.218 309.823,140.933C307.266,139.663 304.55,138.39 301.67,137.044C298.808,135.714 295.303,134.071 291.117,132.084C286.931,130.097 284.102,128.729 282.574,127.966L286.511,188.057C286.31,188.296 286.534,189.169 286.287,189.283C286.044,189.395 285.078,189.172 285.104,189.46C285.548,194.247 283.1,188.398 283.039,188.381C282.65,188.273 282.039,190.129 281.705,190.055C281.371,189.981 281.315,187.962 281.028,187.925C280.767,187.892 278.152,190.871 277.175,191.154C275.669,191.59 277.726,182.932 275.57,189.332C274.631,192.119 275.093,193.36 273.525,189.204C271.05,184.48 269.257,177.127 268.131,167.166C266.986,157.188 266.175,146.618 265.683,135.474C265.172,124.315 264.85,118.679 264.717,118.568C262.911,117.83 259.13,116.053 253.287,113.228C247.479,110.399 239.682,106.356 229.948,101.112C229.481,100.397 228.687,98.717 229.596,98.716C235.19,98.707 230.141,97.377 230.592,96.253C230.922,95.433 228.682,91.591 232.3,93.288C233.573,93.885 240.566,97.437 233.671,90.687C233.416,90.437 234.258,91.716 231.561,87.697C230.708,86.427 232.634,85.718 233.551,85.59C234.276,85.488 234.85,85.112 235.264,84.619C242.323,88.076 248.106,91.012 252.573,93.397C257.041,95.781 261.124,98.2 264.846,100.703" style="fill:rgb(227,30,36);fill-rule:nonzero;"/>
        </g>
    </g>
</svg>
