<?xml version="1.0" encoding="UTF-8" standalone="no"?>
<!DOCTYPE svg PUBLIC "-//W3C//DTD SVG 1.1//EN" "http://www.w3.org/Graphics/SVG/1.1/DTD/svg11.dtd">
<svg width="100%" height="100%" viewBox="0 0 1024 1024" version="1.1" xmlns="http://www.w3.org/2000/svg" xmlns:xlink="http://www.w3.org/1999/xlink" xml:space="preserve" xmlns:serif="http://www.serif.com/" style="fill-rule:evenodd;clip-rule:evenodd;stroke-linejoin:round;stroke-miterlimit:2;">
    <path d="M511.37,0L511.93,0C522.19,0.39 532.59,0.09 542.82,1.08C605,4.7 666.53,19.97 723.18,45.86C756.19,60.97 787.7,79.5 816.8,101.22C860.66,133.89 899.26,173.53 930.78,218.23C972.34,277.32 1001.41,345.01 1014.81,416.05C1020.33,443.99 1022.81,472.18 1024,500.6L1024,523.62C1023.31,530.24 1023.72,536.89 1022.87,543.51C1020.42,585.44 1012.57,626.96 999.86,667C978.41,734.05 942.92,796.59 896.38,849.4C861.08,889.5 819.55,924.29 773.65,951.64C722.95,981.98 667.06,1003.53 609.01,1014.62C577.17,1020.84 545.04,1023.76 512.62,1024L511.1,1024C487.18,1023.82 463.35,1022.12 439.67,1018.79C362.32,1007.88 287.89,978.64 223.5,934.47C171.15,898.56 125.43,852.85 89.53,800.5C51.95,745.63 25.04,683.57 11.29,618.49C5.31,590.68 1.89,562.4 0.51,534C0.45,530.48 0.32,526.96 0,523.45L0,500.34C0.65,494.04 0.29,487.73 1.04,481.44C4.55,420.9 19.06,360.95 43.73,305.54C69.06,248.48 104.82,196.11 148.88,151.87C191.85,108.38 242.66,72.78 298.13,47.09C355.52,20.45 418.02,4.76 481.17,1.08C491.17,0.09 501.34,0.39 511.37,0Z" style="fill:rgb(218,38,30);fill-rule:nonzero;"/>
    <path d="M504.44,57.77C507.51,59 508.79,62.32 509.94,65.15C517.63,87.05 524.28,109.4 532.15,131.22C539.29,110.87 545.72,90.23 552.6,69.78C553.79,66.56 554.53,62.46 556.84,59.85C560.32,55.59 567.83,56.92 570.36,61.59C572.72,65.32 571.09,69.03 569.88,72.81C562.07,94.39 554.1,115.91 546.35,137.51C544.94,141.37 543.63,145.72 540.83,148.83C536.18,153.97 526.83,154.01 522.37,148.61C519.19,144.97 517.73,139.47 516.07,134.98C508.54,113.91 500.84,92.89 493.28,71.83C492,67.95 491.08,63.52 494.26,60.26C496.84,57.12 500.72,56.83 504.44,57.77Z" style="fill:white;fill-rule:nonzero;"/>
    <path d="M435,64.05C438.03,63.34 441.02,62.81 444.11,63.52C448.81,65.26 450.26,72.15 446.56,75.54C444.35,77.74 441.47,78.1 438.56,78.86C432.83,80.15 427.14,81.58 421.4,82.83C426.16,104.56 431.24,126.25 436.17,147.94C436.76,150.92 437.19,154.81 435.43,157.47C432.78,161.79 426.29,162.98 422.44,159.57C419.85,157.35 419.13,154.38 418.35,151.2C413.5,129.85 408.59,108.52 403.81,87.16C397.47,88.25 391.25,90.04 385.02,91.39C382.5,91.86 379.44,92.24 377.01,91.3C373.49,89.39 372.63,85.33 373.63,81.7C375.13,78.77 377.86,77.43 380.94,76.74C398.96,72.47 417,68.36 435,64.05Z" style="fill:white;fill-rule:nonzero;"/>
    <path d="M635.46,76.57C638.85,74.82 642.44,76.15 645.8,77.24C659.26,81.99 672.76,86.64 686.23,91.35C689.17,92.42 693.1,93.36 695.19,95.82C697.91,98.97 696.58,104.36 693.03,106.33C690,107.45 687.16,106.69 684.23,105.7C671.72,101.19 659.09,97.04 646.6,92.46C643.95,99.73 641.55,107.11 639.13,114.46C651.01,118.7 662.95,122.79 674.86,126.96C677.13,127.87 679.61,128.78 680.66,131.19C682.44,134.38 680.51,138.94 677.27,140.36C674.89,141.09 672.5,140.64 670.2,139.85C658.36,135.67 646.53,131.54 634.66,127.45C631.83,135.87 628.74,144.22 626.2,152.73C639.44,157.22 652.59,161.95 665.81,166.48C668.37,167.43 670.9,168.45 672.3,170.97C673.53,174.28 672.81,178.66 669.55,180.53C666.59,182.42 663.77,181.21 660.75,180.27C646.99,175.45 633.22,170.66 619.45,165.85C616.21,164.69 612.21,163.69 609.55,161.44C607.08,159.46 606.36,155.99 607.04,153.01C607.87,149.24 609.32,145.59 610.54,141.93C617.08,122.78 623.55,103.59 630.08,84.43C631.15,81.37 632.5,78.24 635.46,76.57Z" style="fill:white;fill-rule:nonzero;"/>
    <path d="M325.81,104.21C336.95,107.01 344.6,118.87 344.44,130.01C343.91,138.77 338.69,144.28 332.87,150.15C341.53,151.04 349.2,154.96 356.48,159.52C361.01,162.47 365.61,165.74 369.26,169.76C371.11,171.66 371.02,174.84 370.17,177.16C367.98,182.09 361.99,184.09 357.17,181.77C351.37,178.86 346.06,174.87 340.54,171.46C334.76,167.82 328.26,163.12 321.5,161.75C314.95,160.58 309.9,164.39 304.33,167.09C308.51,175.98 313.16,184.65 317.48,193.47C318.64,195.93 319.72,198.23 319.52,201.04C319.27,206.58 312.41,210.93 307.34,208.59C304.15,207.25 302.39,204.02 300.91,201.09C290.63,180.69 280.36,160.29 270.13,139.87C268.59,136.68 266.87,133.5 267.95,129.86C269.25,126 273.09,124.11 276.44,122.34C286.39,117.37 296.14,112 306.16,107.19C312.41,104.17 318.89,102.42 325.81,104.21Z" style="fill:white;fill-rule:nonzero;"/>
    <path d="M319.1,120.8C324.01,122.45 327.2,128 327.39,132.97C327.16,138.37 322.85,141.95 318.73,144.76C312.28,148.82 305.19,151.83 298.55,155.57C294.62,147.99 290.49,140.4 287.1,132.57C294.08,129.11 300.89,125.25 307.99,122.04C311.55,120.4 315.25,119.54 319.1,120.8Z" style="fill:rgb(218,38,30);fill-rule:nonzero;"/>
    <path d="M759.99,128.05C768.57,133.76 777.01,139.68 785.54,145.45C792.34,150.16 799.12,154.92 802.18,162.96C807.11,174.9 800.36,189.74 788.92,195.08C781.19,198.34 773.69,196.22 766.11,193.92C769.49,201.61 770.12,209.71 770.13,218.01C769.68,224.14 769.51,231.31 767.12,237.03C763.01,243.3 753.52,239.83 751.56,233.57C749.91,228.14 751.21,223.47 751.28,218C751.44,210.51 752.08,202.56 751.66,195.04C751.4,191.31 750.19,187.2 747.53,184.46C744.66,181.46 741.03,179.07 737.41,177.07C732.66,184.41 727.68,191.6 722.91,198.92C721.15,201.53 719.24,204.63 716.49,206.27C711.11,209.78 702.46,204.4 703.32,197.98C703.31,194.35 705.69,191.44 707.56,188.55C719.77,170.08 732.15,151.72 744.34,133.23C745.97,130.82 748.01,127.98 750.64,126.61C753.82,125.59 757.26,126.14 759.99,128.05Z" style="fill:white;fill-rule:nonzero;"/>
    <path d="M759.2,144.48C764.62,147.71 769.71,151.56 774.96,155.07C778.3,157.53 782.81,160.51 784.31,164.53C787.85,172.01 780.57,183.08 772,181.41C767.53,180.74 763.11,178.1 759.37,175.64C754.57,172.41 749.77,169.14 745.04,165.78C749.64,158.62 754.4,151.51 759.2,144.48Z" style="fill:rgb(218,38,30);fill-rule:nonzero;"/>
    <path d="M202.16,183.08C209.75,181.42 217.66,182.32 224.8,185.31C234.03,189.17 241.97,196.04 248.28,203.72C254.79,211.76 259.45,221.5 259.7,232C260.02,242.61 255.54,252.73 248.66,260.64C241.81,268.59 233.41,274.98 223.05,277.44C214.52,279.58 205.63,278.22 197.76,274.46C188.91,270.36 181.73,263.91 175.6,256.43C169.32,248.5 165.12,239.21 164.63,229.01C164.46,219.45 167.84,210.21 173.69,202.68C180.95,193.42 190.46,185.69 202.16,183.08Z" style="fill:white;fill-rule:nonzero;"/>
    <path d="M580.05,190.51C637.71,202.42 691.78,230.11 735.44,269.56C759.62,291.31 780.64,316.64 797.6,344.39C829.06,395.62 846.01,455.32 846.43,515.41C623.47,515.4 400.52,515.4 177.56,515.41C177.86,478.8 184.19,442.28 196.29,407.72C211.22,365.38 234.67,326.12 264.95,292.98C285.94,270.02 310.08,249.9 336.52,233.51C380.08,206.42 429.9,189.59 481,184.96C514.03,181.88 547.58,183.73 580.05,190.51Z" style="fill:white;fill-rule:nonzero;"/>
    <path d="M202.49,199.71C207.97,198.96 213.4,200.21 218.26,202.75C224.74,206.09 229.76,211.03 234.42,216.53C239.33,222.55 242.83,230.12 242.55,238.02C242.09,250.57 230.67,261.73 217.97,261.22C208.02,260.57 199.84,254.84 193.1,247.9C187.31,241.78 182.14,233.65 181.67,225.03C180.91,212.9 190.74,201.72 202.49,199.71Z" style="fill:rgb(218,38,30);fill-rule:nonzero;"/>
    <path d="M860.03,214.3C863.33,214.44 866.06,217.61 867.99,219.99C877.44,232.21 886.83,244.48 896.3,256.68C897.96,258.89 899.85,261.11 900.2,263.95C900.63,268.21 896.02,272.17 891.88,271.34C889.39,270.55 887.77,268.81 886.2,266.82C877.84,255.92 869.45,245.04 861.04,234.17C855.08,238.76 849.19,243.45 843.3,248.14C851.11,258.5 859.15,268.69 867.01,279.01C868.64,281.34 870.06,284.03 868.72,286.87C867.68,289.55 865.34,290.31 862.96,291.46C860.24,290.68 858.22,289.86 856.49,287.52C848.6,277.33 840.69,267.08 832.85,256.84C829.43,258.73 826.73,261.34 823.65,263.68C819.81,266.77 815.89,269.75 812.08,272.87C820.8,284.17 829.5,295.49 838.24,306.77C839.67,308.68 840.93,310.48 840.81,313C841.21,318.19 834.99,322.17 830.47,319.52C827.4,317.49 825.16,313.92 822.9,311.06C814.04,299.59 805.21,288.09 796.33,276.63C794.51,274.24 792.55,271.07 792.67,267.95C793.49,263.14 797.32,260.65 800.85,257.82C817.8,244.47 834.7,231.03 851.63,217.65C854.18,215.73 856.66,214.03 860.03,214.3Z" style="fill:white;fill-rule:nonzero;"/>
    <path d="M138.72,288.27C145.57,291.5 152.32,297.27 154.5,304.77C156.31,310.54 155.62,316.31 153.91,321.99C151.11,331.37 144.72,339.75 141.01,348.54C147.97,352.4 154.91,356.29 161.85,360.17C163.96,361.38 166.01,362.54 167.67,364.35C171.52,368.24 170.44,375.87 165.24,378.28C161.83,379.51 158.1,378.79 155.04,376.97C135.61,366.06 116.21,355.1 96.75,344.24C93.6,342.43 89.55,340.52 87.87,337.11C86.49,333.84 87.57,330.17 89.19,327.19C93.41,319.43 97.63,311.66 101.91,303.93C105.45,297.77 109.54,291.44 115.96,287.97C122.93,284.08 131.73,284.81 138.72,288.27Z" style="fill:white;fill-rule:nonzero;"/>
    <path d="M123.23,303.9C131.13,302.77 140.46,309.44 139.32,318.04C138.24,326.3 132.52,334.31 128.64,341.58C120.71,337 112.59,332.72 104.74,328C106.9,322.97 109.8,318.25 112.49,313.49C114.91,309.73 118.53,304.69 123.23,303.9Z" style="fill:rgb(218,38,30);fill-rule:nonzero;"/>
    <path d="M929.01,318.26C934.58,318.55 938.2,325.78 935.67,330.59C934.15,333.69 931.44,335.07 928.51,336.58C908.42,346.5 888.3,356.4 868.23,366.37C864.54,368.15 861.22,370.28 856.93,369.65C851.05,368.68 848.17,361.3 851.38,356.45C853.89,352.74 858.45,351.26 862.26,349.26C880.54,340.19 898.84,331.17 917.12,322.12C921.04,320.29 924.48,317.83 929.01,318.26Z" style="fill:white;fill-rule:nonzero;"/>
    <path d="M494.56,334.87C509.46,333.07 525.05,334.62 537.75,343.24C547.48,349.7 553.77,359.74 556.87,370.88C560.31,383.74 560.37,397.53 557.23,410.46C554.99,419.38 550.75,427.68 544.22,434.23C536.46,442.23 525.96,446.66 515.01,448.12C502.35,449.48 489.69,448.61 478.19,442.72C470.15,438.78 463.65,432.56 459.2,424.8C452.82,413.95 450.66,400.43 451.08,388.01C451.62,374.21 455.5,360.35 464.97,349.98C472.68,341.39 483.27,336.59 494.56,334.87Z" style="fill:rgb(218,38,30);fill-rule:nonzero;"/>
    <path d="M359,336.1C373,336.18 387,335.96 401,336.22C408.77,336.31 416.24,337.71 422.69,342.27C430.39,347.6 434.77,356.69 434.69,366C434.9,373.57 432.87,380.99 427.51,386.51C421.79,392.33 414.5,394.77 406.82,396.81C415.36,401.89 421.06,409.36 426.5,417.49C430.43,423.86 434.53,430.75 436.43,438.04C437.89,444.18 431.67,448.93 426,448.67C421.11,448.94 417.41,446.01 414.86,442.11C409.08,433.16 403.83,423.86 398.2,414.81C395.02,409.89 390.94,404.14 385.62,401.41C380.12,398.69 372.66,399.38 366.69,399.58C366.79,410.72 366.69,421.86 366.75,433C366.67,436.77 366.89,440.5 364.84,443.83C361.41,449.92 351.27,450.4 347.1,444.93C345,441.98 344.43,438.57 344.42,435.02C344.43,406.67 344.44,378.31 344.42,349.96C344.4,346.47 345.02,342.14 347.48,339.49C350.72,336.29 354.71,336.14 359,336.1Z" style="fill:rgb(218,38,30);fill-rule:nonzero;"/>
    <path d="M572.99,336.12C596.63,336.07 620.35,336.13 644,336.1C647.26,336.18 650.2,336.09 652.96,338.1C657.74,341.33 657.7,349.74 652.75,352.79C650.03,354.55 647.14,354.64 644.01,354.66C636.18,354.65 628.35,354.62 620.51,354.66C620.44,380.11 620.48,405.55 620.49,431C620.47,435.52 620.8,440.27 618.23,444.25C614.48,450.09 604.49,450.24 600.59,444.48C597.39,440.22 598.28,434.02 598.15,429C598.05,404.23 598.37,379.41 597.99,354.65C589.66,354.6 581.33,354.69 573,354.62C569.76,354.54 566.73,354.09 564.44,351.56C561.95,348.99 561.97,345.49 562.65,342.19C564.36,337.86 568.53,336.01 572.99,336.12Z" style="fill:rgb(218,38,30);fill-rule:nonzero;"/>
    <path d="M504.14,351.86C513.18,351.68 522.08,354.97 527.93,362.04C534.21,369.65 536.61,380.33 536.61,390C536.86,400.99 534.86,412.04 527.77,420.78C519.73,430.74 505.04,433.38 493.44,428.75C485.09,425.24 479.42,417.96 476.58,409.51C473.36,399.66 473.08,388.71 475.06,378.59C476.76,370.69 480.32,362.87 486.83,357.81C491.79,353.86 497.86,352.09 504.14,351.86Z" style="fill:white;fill-rule:nonzero;"/>
    <path d="M366.75,352.77C375.17,352.83 383.61,352.63 392.03,352.85C396.98,353.42 401.71,353.02 405.88,356.04C413.94,361.23 414.23,375.75 405.33,380.29C399.65,383.24 392.29,383.58 386,383.55C379.56,383.48 373.12,383.67 366.69,383.42C366.79,373.2 366.69,362.98 366.75,352.77Z" style="fill:white;fill-rule:nonzero;"/>
    <path d="M958.02,393.99C963.52,394.95 967.34,400.55 966.69,406.05C966.52,409.8 964.1,412.12 961.61,414.59C944.92,430.62 928.14,446.58 911.54,462.7C929.41,460.03 947.15,456.29 964.99,453.4C968.2,453.1 971.33,452.83 973.96,455.05C977.11,457.79 977.62,463.74 974.99,466.98C972.64,469.56 969.49,470.14 966.21,470.79C943.15,474.93 920.07,479.01 897.01,483.14C893.89,483.65 890.88,483.8 888.05,482.15C884.62,480.42 883.38,475.52 883.5,472C883.76,466.3 888.2,462.64 891.89,458.88C907.09,444.17 922.57,429.75 937.86,415.13C931.83,415.75 925.98,417.08 920.02,418.08C908.68,420.14 897.34,422.1 886.01,424.18C883.08,424.61 880.26,424.92 877.61,423.32C873.1,420.68 872.01,413.48 875.8,409.8C877.78,407.76 880.29,407.08 883,406.56C904.98,402.63 926.96,398.67 948.94,394.78C951.8,394.32 955.15,393.38 958.02,393.99Z" style="fill:white;fill-rule:nonzero;"/>
    <path d="M79.02,407.55C81.86,407.64 84.26,408.75 86.03,410.98C88.81,414.04 88.38,420.36 84.48,422.36C80.16,424.8 75.46,425.12 71.42,428.41C68.01,431.06 66.76,434.89 65.93,438.96C65.04,444.21 64.98,449.41 68.1,453.95C70.22,457.08 73.89,458.39 77.53,457.4C81.2,456 83.97,452.08 85.69,448.71C89.8,440.41 92.97,431.31 98.22,423.2C101.28,418.61 104.84,414.62 110.06,412.47C116.09,409.95 122.46,410.62 128.52,412.63C135.7,415.15 141.35,421.01 144.03,428.09C147.87,437.8 146.88,448.9 144.28,458.8C142.05,466.95 137.84,474.88 130.6,479.61C125.64,482.85 118.97,485.32 113.01,484.08C110.15,483.46 108.1,481.64 107.09,478.91C105.67,475.13 107.26,470.66 110.95,468.91C116.19,466.46 121.91,466.85 126.63,462.66C131.6,458.38 132.66,452.21 133.19,446.01C133.17,441.98 132.21,437.54 129.77,434.26C127.21,430.57 122.18,428.75 117.84,429.89C114.37,430.87 111.65,433.86 109.85,436.87C106.13,443.24 103.82,450.72 100.28,457.28C97.27,462.9 94.14,468.09 88.78,471.78C78.94,478.94 63.23,475.26 56.94,465.03C52.36,457.97 51.68,449.17 52.43,440.99C53.38,432.04 55.86,422.83 61.91,415.92C66.15,411.05 72.36,407.18 79.02,407.55Z" style="fill:white;fill-rule:nonzero;"/>
    <path d="M23.84,523.87C75.02,523.59 126.26,523.93 177.45,523.7C177.81,528.13 177.93,532.57 178.29,536.99C182.69,610.94 213,682.59 262.44,737.68C290.5,769.32 324.67,795.58 362.46,814.56C416.64,841.92 478.33,853.89 538.8,848.89C594.61,844.57 649.08,825.67 695.71,794.74C719.45,779.04 741.16,760.35 760.23,739.22C801.39,693.73 829.76,636.94 840.83,576.55C844.25,559.08 845.63,541.46 846.56,523.71C896.37,523.84 946.19,523.77 996,523.74C997.59,523.91 999.18,523.27 1000.26,524.65C998.15,611.2 972.39,696.9 926.29,770.19C892.99,823.54 849.21,870.36 798.34,907.31C750.14,942.39 695.54,968.52 637.95,983.9C587.61,997.42 535.01,1002.67 483,999.57C421.16,995.97 360.11,980.36 304.13,953.85C249.24,927.98 199.23,891.54 157.51,847.49C114.2,801.78 79.64,747.62 56.82,688.91C37.36,639.2 26.21,586.18 24.04,532.84C23.73,529.82 23.67,526.9 23.84,523.87Z" style="fill:white;fill-rule:nonzero;"/>
    <path d="M543.38,582.58C545.43,585.39 545.87,588.6 545.87,591.99L545.87,679C545.85,682.7 545.61,686.18 543.2,689.18C539.06,694.51 529.14,694.21 525.72,688.2C522.98,683.79 523.75,677.97 523.65,673L523.65,591.99C523.67,587.91 524.6,583.6 527.92,580.9C532.46,577.17 539.75,577.97 543.38,582.58Z" style="fill:white;fill-rule:nonzero;"/>
    <path d="M282.02,580.96C284.32,583.8 285.33,587.89 286.26,591.35C291.28,613.68 296.34,636 301.29,658.35C302.55,654.67 303.57,650.94 304.54,647.18C309.35,629.46 314.07,611.72 318.87,594C319.91,590.46 321.03,586.32 323.46,583.46C327.82,577.78 337.31,577.03 342.97,581.05C348.06,584.98 348.69,590.74 350.5,596.49C356.1,617.05 361.71,637.62 367.21,658.21C367.91,656.07 368.54,653.91 369.04,651.72C373.52,631.49 378.18,611.3 382.63,591.06C383.5,587.43 384.33,583.79 387.03,581.03C391.75,576.73 400.18,578.22 403.22,583.84C405.33,587.61 404.21,592.08 403.36,596.05C397,622.25 390.39,648.39 383.92,674.57C382.86,678.49 381.97,682.62 380.23,686.3C378.53,689.24 375.57,692.21 372.05,692.64C367.8,693.12 363.22,693.23 359.89,690.13C355.96,686.9 355.2,682.62 353.78,678.02C347.24,654.66 341.18,631.15 334.61,607.8C333.19,611.62 332.32,615.56 331.22,619.47C326.02,638.23 320.92,657.02 315.74,675.78C314.12,680.73 313.25,686.58 309.04,690.05C305.72,693.31 300.23,693.24 295.96,692.45C289.74,690.61 287.69,684.93 286.15,679.25C279.16,651.71 272.41,624.1 265.58,596.52C264.72,592.69 263.49,587.88 265.43,584.22C268.34,578.26 277.11,576.65 282.02,580.96Z" style="fill:white;fill-rule:nonzero;"/>
    <path d="M614,578.59C624.16,579.03 633.96,581.49 641.87,588.15C646.95,592.56 651.15,599.03 650.78,606.01C650.81,609.39 648.96,612.4 646.27,614.34C643.8,616.25 639.84,616.08 636.98,615.27C633.81,613.77 631.97,609.47 630.3,606.57C627.36,601.07 623.64,596.25 617.16,594.99C609.43,593.56 599.8,593.99 593.91,599.91C590.52,603.1 589.51,608.11 591.8,612.24C595.04,617.82 603.22,620.06 609.06,621.6C618.63,624.12 627.94,625.98 637.11,630.09C642.84,632.78 648.02,636.08 651.46,641.55C655.87,648.21 656.3,656.23 655.34,663.95C653.7,674.02 647.13,682.47 638.17,687.16C627.12,693.11 615.23,693.44 602.99,692.51C592.52,691.36 582.66,687.48 575.63,679.39C570.97,673.96 566.97,666.24 567.77,658.92C568.64,652.9 575.51,648.95 581.1,651.37C585.14,653 586.66,656.85 588.3,660.54C590.5,665.64 592.69,670.29 597.53,673.41C602.59,676.81 608.1,676.88 613.99,676.66C619.97,676.47 626.41,673.97 630.32,669.32C634.51,664.44 634.8,656.46 630.36,651.64C626.11,647.21 620.69,645.76 614.96,644.22C605.75,641.89 596.75,640.09 588.03,636.13C580.76,632.97 573.94,627.18 571.31,619.51C568.42,611.01 569.4,601.01 574.59,593.57C578.35,588.08 583.84,584.42 590,582.1C597.59,579.3 605.95,578.33 614,578.59Z" style="fill:white;fill-rule:nonzero;"/>
    <path d="M730.22,580.46C738.94,582.84 747.4,588.08 751.75,596.24C753.93,600.16 754.46,604.69 753.61,609.06C752.72,611.74 750.53,614.03 748.04,615.3C744.47,616.19 740.32,616.38 737.79,613.22C734.19,608.89 732.82,603.43 728.58,599.42C724.86,595.23 719.32,594.44 714,594.34C708.02,594.23 702.08,595.42 697.54,599.56C695.14,601.73 693.87,604.8 693.88,608.03C694.19,611.01 695.44,613.35 697.71,615.29C702.47,619.27 708.7,620.61 714.55,622.17C724.92,624.82 736.78,627.35 745.95,633.04C752.4,636.92 757.26,643.49 758.47,650.98C760.04,659.11 758.83,668.29 754.35,675.36C749.91,682.96 741.5,688.13 733.22,690.58C724.92,693.15 716.6,693.11 707.99,692.65C697.64,691.85 687.57,688.39 680.26,680.75C675.99,676.22 672.2,670.26 671.32,664.01C671.08,660.6 670.71,656.94 673.25,654.26C676.65,650.16 682.96,649.39 687.04,652.97C690.86,656.51 691.93,662.66 694.87,667.11C698,672.55 703.74,676.02 709.97,676.55C716.46,677.04 722.75,676.84 728.54,673.54C733.5,670.67 737.15,665.97 736.77,659.99C736.96,653.88 732.81,649.81 727.64,647.35C719.94,643.92 711.01,642.77 702.95,640.32C695.33,637.95 687.22,635.31 681.4,629.61C670.07,619.66 670.53,599.5 681.44,589.41C686.38,584.56 692.59,581.96 699.21,580.3C709.33,577.96 720.14,577.88 730.22,580.46Z" style="fill:white;fill-rule:nonzero;"/>
    <path d="M434,580.43C453.33,580.46 472.68,580.44 492.02,580.45C494.45,580.45 496.78,580.64 498.93,581.9C504.15,584.49 504.13,593.38 499.07,596.13C496.86,597.38 494.51,597.61 492.03,597.64C475.24,597.63 458.45,597.62 441.66,597.64C441.68,606.58 441.6,615.53 441.69,624.47C442.46,625.59 443.77,625.09 444.96,625.25C458.97,625.17 472.99,625.25 487,625.2C490.01,625.28 493.3,625.15 495.74,627.19C499.48,630.22 499.4,636.72 495.71,639.75C493.43,641.58 490.82,641.74 488.02,641.78C472.57,641.78 457.12,641.75 441.68,641.79C441.63,652.36 441.69,662.93 441.64,673.51C459.09,673.62 476.55,673.52 494.01,673.55C496.61,673.63 499.37,673.89 501.5,675.54C505.82,678.66 505.82,686.31 501.32,689.28C498.93,690.97 495.85,691.26 493,691.27C473.01,691.22 452.99,691.27 433,691.25C429.67,691.13 425.38,690.54 422.87,688.14C420.12,685.61 419.49,681.58 419.44,678.02C419.43,650.01 419.44,621.99 419.44,593.98C419.47,590.28 420.02,586.45 422.65,583.64C425.58,580.86 430.15,580.41 434,580.43Z" style="fill:white;fill-rule:nonzero;"/>
    <path d="M145,589.4C149.5,590.35 152.38,596.18 151.27,600.45C149.86,603.76 145.97,606.15 143.11,608.16C127.76,618.28 112.38,628.34 97.06,638.51C115.03,636.99 133.01,635.27 150.97,633.64C154.81,633.43 158.74,632.88 162.27,634.76C166.97,637.23 169.42,643.44 168.32,648.52C166.97,653.54 162.74,655.87 158.9,658.82C144.57,669.12 130.37,679.63 115.94,689.78C119.32,689.68 122.64,689.26 125.98,688.71C141.31,686.66 156.65,684.57 171.99,682.51C174.66,682.28 177.79,681.96 180.35,682.86C184.99,685.05 186.73,691.56 183.84,695.81C181.82,699.24 177.1,699.78 173.53,700.3C150.37,702.94 127.19,705.53 104.02,708.05C99.57,708.52 95.21,708.55 91.9,705.11C89.1,701.78 87.43,696.63 89.51,692.52C90.94,689.14 94.15,687.09 96.94,684.92C113.11,673.06 129.54,661.54 145.7,649.65C124.74,651.47 103.91,653.34 83.01,655.1C79.95,655.42 76.52,654.87 73.96,653.07C70.08,650.31 68.48,644.99 69.62,640.46C70.98,636.39 75.02,633.71 78.35,631.31C95.66,619.29 113.08,607.39 130.4,595.38C134.79,592.6 139.37,588.08 145,589.4Z" style="fill:rgb(218,38,30);fill-rule:nonzero;"/>
    <path d="M958.1,589.95C960.45,588.79 964.56,588.95 966.9,590.11C971.8,592.78 973,599.32 969.81,603.8C966.75,608.5 959.91,608.72 955.96,605.04C951.39,600.86 952.49,592.74 958.1,589.95Z" style="fill:rgb(218,38,30);fill-rule:nonzero;"/>
    <path d="M882.01,600.52C885.68,599.97 888.75,602.46 891.46,604.56C910.16,619.83 928.83,635.2 947.55,650.43C950.24,652.8 953.55,655.63 954.46,659.25C955.49,664.02 954.47,669.36 950.72,672.72C947.33,675.86 942.39,676.24 938,676.38C928.67,676.4 919.34,676.77 910,676.77C896.03,677.59 882,677.54 868,677.81C863.96,677.66 859.86,678.47 856.89,675.12C853.08,671.15 853.93,664.48 858.17,661.22C860.38,659.9 863.48,659.85 866,659.68C888.71,659.51 911.51,659.96 934.2,659.67C916.28,645.97 898.46,632.14 880.57,618.41C878.39,616.67 875.84,614.86 874.76,612.21C873.06,607.04 876.56,601.18 882.01,600.52Z" style="fill:rgb(218,38,30);fill-rule:nonzero;"/>
    <path d="M207.47,725.86C213.5,726.89 217.99,733.07 218.25,738.97C218.08,744.24 214.23,749.23 211.51,753.53C200.21,771.24 189.03,789.02 177.77,806.75C175.64,810.04 173.49,813.94 170.47,816.48C168.71,818.05 166.16,817.97 163.96,817.78C158.82,817.3 154.8,810.99 157.24,806.18C160.24,799.79 164.75,794.01 168.55,788.07C161.6,778.05 154.55,768.1 147.66,758.05C139.91,758.25 131.71,763 123.91,762.42C117.88,760.4 116.23,751.98 120.56,747.57C123.03,745.3 127.03,744.54 130.21,743.74C151.87,738.31 173.55,733.01 195.22,727.59C199.04,726.65 203.53,725.19 207.47,725.86Z" style="fill:rgb(218,38,30);fill-rule:nonzero;"/>
    <path d="M816.96,735.55C820.91,735.09 824.91,739 824.44,742.97C824.28,745.68 821.95,748.28 820.3,750.29C813.02,758.69 805.9,767.22 798.66,775.64C797.18,777.28 795.91,778.97 794.78,780.86C800.28,785.53 805.69,790.32 811.13,795.05C817.73,787.98 823.7,780.32 830.07,773.04C832.9,769.94 835.34,766.26 838.56,763.58C841.46,761.26 845.84,761.99 848.03,764.96C850.51,767.92 849.82,771.66 847.47,774.45C839.09,784.57 830.34,794.4 822.05,804.58C827.63,809.46 833.25,814.3 838.79,819.23C840.23,820.25 841.31,821.93 842.89,819.96C851.59,809.68 860.45,799.33 869.11,789.05C870.38,787.59 871.63,786.25 873.41,785.4C877.99,782.82 884.21,787.89 883.5,792.82C883.32,795.14 881.51,797.32 880.1,799.06C869.37,811.68 858.61,824.32 847.9,836.95C846.17,838.93 843.67,841.08 840.99,841.48C837.65,841.95 834.68,839.77 832.22,837.78C817.3,824.72 802.33,811.71 787.4,798.65C784.21,795.87 780.76,793.18 777.96,790.01C776.15,787.96 775.22,785.29 775.82,782.57C776.61,779.71 778.45,777.56 780.29,775.32C790.58,763.26 800.86,751.17 811.1,739.07C812.55,737.41 814.65,735.61 816.96,735.55Z" style="fill:rgb(218,38,30);fill-rule:nonzero;"/>
    <path d="M902.44,740.54C906.69,739.66 911.16,742.22 912.85,746.14C915.28,751.39 911,758.98 905.02,758.84C899.94,759.39 895.13,755.12 895.13,750.01C894.78,745.42 898.01,741.44 902.44,740.54Z" style="fill:rgb(218,38,30);fill-rule:nonzero;"/>
    <path d="M199.39,743.01C191.84,753.93 184.4,764.93 176.89,775.88C171.56,768.51 166.46,760.98 161.21,753.55C167.47,751.52 173.88,749.96 180.19,748.09C186.57,746.36 192.89,744.21 199.39,743.01Z" style="fill:white;fill-rule:nonzero;"/>
    <path d="M252.98,778.2C258.59,777.82 263.65,783.98 262.18,789.44C261.27,792.89 258.96,795.09 256.73,797.72C243.41,812.8 230.23,827.85 216.9,842.93C216.31,843.76 214.95,844.74 215.17,845.85C216.78,847.84 218.93,849.46 220.82,851.18C227.98,857.69 235.15,864.19 242.36,870.65C244.24,872.42 245.91,874.57 246.27,877.2C246.67,881.53 242.51,886.13 238.03,885.45C235.13,885.3 232.42,882.5 230.31,880.71C220.55,871.79 210.67,863.01 200.92,854.1C198.35,851.71 194.57,848.73 194.26,844.98C193.83,841.3 195.69,838.62 197.96,835.97C213.24,818.59 228.56,801.23 243.85,783.86C246.3,781.24 249.03,778 252.98,778.2Z" style="fill:rgb(218,38,30);fill-rule:nonzero;"/>
    <path d="M320.48,829.5C324.09,832.6 323.31,838.66 321.25,842.42C310.94,862.11 300.81,881.91 290.46,901.59C301.81,907.94 313.53,913.75 324.87,920.12C329.39,922.58 330.46,928.93 326.68,932.5C323.92,935.23 320.15,934.75 317,933.02C303.9,926.14 290.88,919.09 277.79,912.18C274.32,910.25 271.04,908.28 270.44,903.98C270.07,899.87 272.99,895.35 274.79,891.8C284.84,872.51 294.83,853.18 304.86,833.88C306.39,831.06 308.08,828.56 311.19,827.33C314.41,825.81 317.95,827.4 320.48,829.5Z" style="fill:rgb(218,38,30);fill-rule:nonzero;"/>
    <path d="M709.81,832.68C712.96,833.59 715.1,836.75 714.87,840.01C714.83,843.26 712.36,845.14 709.78,846.6C698.99,852.34 688.07,857.84 677.32,863.64C680.9,870.48 684.24,877.45 687.93,884.24C695.24,881.11 702.11,876.93 709.24,873.4C712.54,871.84 716.3,869.06 720.02,869.07C724.95,869.02 728.2,875.53 725.51,879.52C723.71,882.22 719.93,883.64 717.16,885.18C710.18,888.92 703.06,892.43 696.09,896.19C694.14,896.87 695.47,898.66 695.89,900C700.02,908.18 704.18,916.36 708.32,924.53C709.38,926.61 709.95,928.66 709.88,931C710.35,937.26 702.46,941.63 697.16,938.74C694.61,937.28 693.06,934.96 691.72,932.42C681.11,911.38 670.31,890.46 659.69,869.42C658.49,866.81 657.17,863.8 658.14,860.91C659.04,857.71 662.23,855.54 665.01,854.06C677.5,847.56 690,841.05 702.48,834.51C704.88,833.36 707.05,832.15 709.81,832.68Z" style="fill:rgb(218,38,30);fill-rule:nonzero;"/>
    <path d="M383.98,863.77C388.41,862.45 392.85,864.33 397.06,865.6C407.43,869.07 418.91,871.3 428.5,876.57C436.37,880.76 441.56,888.42 444.07,896.82C446.9,906.15 445.83,916.51 443.29,925.79C440.88,934.42 437.18,943.4 431.2,950.2C424.99,957.22 416.52,962.09 407.01,962.43C398.65,962.82 391.06,960.19 383.2,957.8C377.13,955.88 371,954.15 364.94,952.17C361.87,951.17 358.99,949.34 357.84,946.18C357.01,942.68 358.38,938.44 359.34,935.06C365.51,914.3 371.68,893.55 377.82,872.78C378.9,869.21 380.27,865.37 383.98,863.77Z" style="fill:rgb(218,38,30);fill-rule:nonzero;"/>
    <path d="M631.15,872.9C644.61,877.4 651.07,895.51 644.68,907.81C641.38,913.97 636.05,917.17 630.18,920.49C630.31,920.95 630.64,921.26 631.18,921.43C638.29,924.24 644.52,929.76 649.82,935.17C653.75,939.5 657.94,944.15 660.47,949.45C662.26,954.88 657.29,959.75 652.02,959.76C647.75,960.14 645.1,957.44 642.31,954.69C637.93,950.06 633.52,945.44 629.25,940.7C625.08,936.23 620.17,930.82 614.33,928.65C609.07,926.57 603.45,928.98 598.14,929.82C598.3,932.18 598.59,934.51 599.15,936.81C600.78,943.78 602.13,950.81 603.72,957.78C604.37,960.97 604.98,964.51 603.42,967.54C601.01,972.03 594.35,973.84 590.13,970.81C587.51,968.99 586.47,965.76 585.76,962.79C581.2,941.53 576.6,920.28 572.07,899.01C571.22,894.91 569.82,890.7 570.7,886.47C571.91,882.51 575.52,880.83 579.26,879.94C590.03,877.58 600.78,875.15 611.55,872.84C617.93,871.49 624.89,870.55 631.15,872.9Z" style="fill:rgb(218,38,30);fill-rule:nonzero;"/>
    <path d="M419.48,889.55C425.9,893.9 428.08,902.72 427.16,910.05C425.99,919.14 423.26,928.45 418.34,936.24C414.46,942.11 408.49,947.31 401,946.82C392.92,946.49 384.99,942.68 377.15,940.78C382.64,920.54 389.07,900.49 394.85,880.33C403.14,882.58 412.26,884.75 419.48,889.55Z" style="fill:white;fill-rule:nonzero;"/>
    <path d="M495.57,883.98C503.87,881.91 512.44,882.1 520.77,883.85C530.31,885.87 539.35,890.94 545.13,898.91C550.11,905.64 552.65,913.73 553.52,921.99C554.16,931.14 553.75,940.22 550.91,949C547.96,958.09 542.61,966.22 534.5,971.47C527.11,976.28 518.7,978 510,978.21C501.93,977.95 494.13,976.8 486.85,973.09C478.81,969.21 472.32,962.36 468.79,954.17C464.48,944.31 463.65,933.58 464.77,922.97C466.02,912.86 469.42,903.01 476.35,895.36C481.41,889.68 488.21,885.79 495.57,883.98Z" style="fill:rgb(218,38,30);fill-rule:nonzero;"/>
    <path d="M614.07,886.71C618.36,886.07 622.64,887.12 625.61,890.41C628.82,893.75 629.21,898.68 628.42,903.04C627.43,905.62 625.46,907.75 623.08,909.12C617.47,912.35 611.39,913.25 605.21,914.66C601.78,915.47 598.34,916.24 594.87,916.85C593.42,908.46 590.74,900.2 589.99,891.72C598.01,890.09 605.97,887.88 614.07,886.71Z" style="fill:white;fill-rule:nonzero;"/>
    <path d="M503.16,898.03C511.88,896.25 521.64,898.5 527.88,905.1C533.46,911.07 535.74,920.01 535.63,928C535.73,937.64 533.83,947.81 527.23,955.22C518.25,965.52 500.41,965.84 490.96,956.04C485.67,950.89 483.32,943.21 482.63,936.03C481.87,926.78 483.3,916.35 488.38,908.39C491.67,903.07 497.08,899.4 503.16,898.03Z" style="fill:white;fill-rule:nonzero;"/>
</svg>
