<svg viewBox="0 0 450 420" xmlns="http://www.w3.org/2000/svg" xml:space="preserve" style="fill-rule:evenodd;clip-rule:evenodd;stroke-linejoin:round;stroke-miterlimit:2"><path d="M582.249 300.771c0-28.834-4.654-44.682-28.021-51.189-23.366-6.507-43.458 3.105-136.905 13.674-61.486 6.954-84.486 2.157-115.844-6.919-52.024-15.056-69.167-18.725-91.701-10.018-22.533 8.707-43.897 25.618-43.897 54.452v261.701c0 28.834 15.877 30.559 37.75 36.82 30.835 8.828 29.192-3.156 87.014-2.268 29.266.45 64.436 11.603 120.913 30.602 60.24 20.265 100.27 6.187 125.672-4.536 22.473-9.488 45.019-31.784 45.019-60.618V300.771Z" style="fill:#dc271e" transform="matrix(1.00806 .1094 -.1073 .98876 -106.472 -263.34)"/><path d="M579.796 179.244c73.865-.408 118.583 7.37 118.583 15.613-20.142 1.503-43.304 5.614-83.658 11.402-30.159 4.327-53.335 10.966-104.143 8.934-31.81-3.094-8.264-2.27-104.88-21.658 64.713-11.21 154.277-14.182 174.098-14.291Z" style="fill:#d2d2d2" transform="rotate(6.958 1848.517 -2246.723)"/><path d="m521.739 339.072 9.032-7.365 11.951 16.536-60.309 48.913-11.672-14.034c2.223-2.038 3.914-4.378 5.072-7.018 1.158-2.64 1.737-5.489 1.737-8.546 0-5.651-1.737-10.445-5.211-14.382-3.474-3.937-7.805-5.906-12.993-5.906-8.152 0-14.637 4.007-19.454 12.02s-7.226 18.829-7.226 32.447c0 23.994 5.628 44.166 16.883 60.517 11.256 16.351 25.222 24.526 41.897 24.526 8.615 0 16.513-1.783 23.692-5.35 7.18-3.567 14.012-9.055 20.497-16.467l14.729 13.341c-11.302 17.786-23.878 31.011-37.727 39.672-13.85 8.662-29.344 12.993-46.482 12.993-25.568 0-46.528-8.778-62.879-26.333s-24.526-39.997-24.526-67.325c0-13.618 2.154-26.426 6.461-38.423 4.308-11.996 10.723-22.997 19.246-33.002 9.727-11.673 20.751-20.659 33.072-26.958 12.322-6.3 25.013-9.45 38.075-9.45 9.542 0 18.204 1.645 25.986 4.933 7.781 3.289 14.498 8.176 20.149 14.661Z" style="fill:#fff;fill-rule:nonzero" transform="rotate(8.156 1812.89 -1368.501)"/></svg>